<svg width="16" height="17" viewBox="0 0 16 17" fill="none" xmlns="http://www.w3.org/2000/svg">
<path fill-rule="evenodd" clip-rule="evenodd" d="M6.33366 13.1667C6.33366 12.4303 5.73669 11.8333 5.00033 11.8333C4.26396 11.8333 3.66699 12.4303 3.66699 13.1667C3.66699 13.903 4.26396 14.5 5.00033 14.5C5.73669 14.5 6.33366 13.903 6.33366 13.1667ZM5.00033 7.16667C5.73669 7.16667 6.33366 7.76363 6.33366 8.5C6.33366 9.23637 5.73669 9.83333 5.00033 9.83333C4.26396 9.83333 3.66699 9.23637 3.66699 8.5C3.66699 7.76363 4.26396 7.16667 5.00033 7.16667ZM5.00033 2.5C5.73669 2.5 6.33366 3.09697 6.33366 3.83333C6.33366 4.5697 5.73669 5.16667 5.00033 5.16667C4.26396 5.16667 3.66699 4.5697 3.66699 3.83333C3.66699 3.09697 4.26396 2.5 5.00033 2.5Z" fill="#A3A8AE"/>
<path fill-rule="evenodd" clip-rule="evenodd" d="M12.3337 13.1667C12.3337 12.4303 11.7367 11.8333 11.0003 11.8333C10.264 11.8333 9.66699 12.4303 9.66699 13.1667C9.66699 13.903 10.264 14.5 11.0003 14.5C11.7367 14.5 12.3337 13.903 12.3337 13.1667ZM11.0003 7.16667C11.7367 7.16667 12.3337 7.76363 12.3337 8.5C12.3337 9.23637 11.7367 9.83333 11.0003 9.83333C10.264 9.83333 9.66699 9.23637 9.66699 8.5C9.66699 7.76363 10.264 7.16667 11.0003 7.16667ZM11.0003 2.5C11.7367 2.5 12.3337 3.09697 12.3337 3.83333C12.3337 4.5697 11.7367 5.16667 11.0003 5.16667C10.264 5.16667 9.66699 4.5697 9.66699 3.83333C9.66699 3.09697 10.264 2.5 11.0003 2.5Z" fill="#A3A8AE"/>
</svg>
